<svg xmlns="http://www.w3.org/2000/svg" viewBox="0 0 960 540" role="img" aria-labelledby="title desc">
  <title id="title">Eye slime</title>
  <desc id="desc">A sticky one-eyed slime bubbles in the cave.</desc>
  <defs>
    <radialGradient id="cave" cx="50%" cy="60%" r="60%">
      <stop offset="0" stop-color="#66806b"/>
      <stop offset="0.4" stop-color="#2e3442"/>
      <stop offset="1" stop-color="#111018"/>
    </radialGradient>
    <linearGradient id="slime" x1="0" x2="1" y1="0" y2="1">
      <stop offset="0" stop-color="#b1e65b"/>
      <stop offset="1" stop-color="#41732f"/>
    </linearGradient>
  </defs>
  <rect width="960" height="540" fill="url(#cave)"/>
  <path d="M0 0h312l126 214H0zm960 0H648L522 214h438z" fill="#1f1a29"/>
  <ellipse cx="480" cy="442" rx="260" ry="58" fill="#0f0d15" opacity=".68"/>
  <path d="M303 428c-16-113 46-186 177-186s193 73 177 186c-10 73-80 96-177 96s-167-23-177-96z" fill="url(#slime)" stroke="#27471f" stroke-width="12"/>
  <path d="M335 432c66 21 124 23 177 7 45-13 83-12 126 7" fill="none" stroke="#d7ff84" stroke-width="15" stroke-linecap="round" opacity=".42"/>
  <circle cx="480" cy="333" r="78" fill="#f8f6d8" stroke="#27471f" stroke-width="10"/>
  <circle cx="500" cy="348" r="31" fill="#18211b"/>
  <circle cx="512" cy="335" r="10" fill="#ffffff"/>
  <circle cx="370" cy="263" r="23" fill="#8dd94f" stroke="#27471f" stroke-width="7"/>
  <circle cx="610" cy="272" r="18" fill="#8dd94f" stroke="#27471f" stroke-width="7"/>
  <path d="M422 430c34 21 77 21 116 0" fill="none" stroke="#1d2a19" stroke-width="14" stroke-linecap="round"/>
  <circle cx="275" cy="197" r="10" fill="#cfff7e" opacity=".78"/>
  <circle cx="704" cy="190" r="13" fill="#cfff7e" opacity=".7"/>
</svg>
